# xmcd
#
# Track frame offsets:
#	182
#	19052
#	34055
#	53735
#	66697
#	75465
#	110972
#	126557
#	143550
#	155672
#	174630
#	191720
#	210965
#	224420
#	254332
#
# Disc length: 3787 seconds
#
# Revision: 1
# Processed by: cddbd v1.5.2PL0 Copyright (c) Steve Scherf et al.
# Submitted via: EasyCDDAExtractor 11.1.0.1
#
DISCID=e40ec90f
DTITLE=Various Artist - Rollin' And Tumblin'
DYEAR=1995
DGENRE=Blues
TTITLE0=Roy Gaines And The Crusaders - First Rule Of Cheating
TTITLE1=Greg 'Fingers' Taylor with Anson Funderburgh And The Rockets - Soul Su
TTITLE1=rvivor
TTITLE2=Fenton Robinson - You Don't Know What Love Is
TTITLE3=King Biscuit Boy with The Ronnie Hawkins Band - Hoodoo Party
TTITLE4=Earl Hooker - The Foxtrot
TTITLE5=Albert Collins - I've Got A Mind To Travel
TTITLE6=Louisiana Red - Lightnin' Bug
TTITLE7=John Lee Hooker - Goin' Mad Blues
TTITLE8=Ike Turner - Prancin'
TTITLE9=Clarence Edwards - Still A Fool
TTITLE10=Memphis Slim And Matt 'Guitar' Murphy - Wish Me Well
TTITLE11=Muddy Waters - Rollin' And Tumblin'
TTITLE12=Jimmy Reed - Hard Walking Hanna
TTITLE13=Luther Allison - You Upset Me Baby
TTITLE14=Eddie Clearwater - Came Up The Hard Way
EXTD=
EXTT0=
EXTT1=
EXTT2=
EXTT3=
EXTT4=
EXTT5=
EXTT6=
EXTT7=
EXTT8=
EXTT9=
EXTT10=
EXTT11=
EXTT12=
EXTT13=
EXTT14=
PLAYORDER=
